<svg width="36" height="36" viewBox="0 0 36 36" fill="none" xmlns="http://www.w3.org/2000/svg">
<path d="M25.7143 15.1714H36V10.5429H21.4573L28.5429 3.45471L25.2707 0.182571L15.1714 10.2857V0H10.5429V14.5427L3.45471 7.45714L0.182571 10.7293L10.2857 20.8286H0V25.4571H14.5427L7.45714 32.5453L10.7306 35.8174L20.8286 25.7143V36H25.4571V21.4573L32.5453 28.5429L35.8174 25.2694L25.7143 15.1714ZM18 20.8286C17.4406 20.8286 16.8937 20.6627 16.4285 20.3519C15.9634 20.0411 15.6008 19.5993 15.3867 19.0824C15.1727 18.5656 15.1166 17.9969 15.2258 17.4482C15.3349 16.8995 15.6043 16.3955 15.9999 15.9999C16.3955 15.6043 16.8995 15.3349 17.4482 15.2258C17.9969 15.1166 18.5656 15.1727 19.0824 15.3867C19.5993 15.6008 20.0411 15.9634 20.3519 16.4285C20.6627 16.8937 20.8286 17.4406 20.8286 18C20.8286 18.7502 20.5306 19.4696 20.0001 20.0001C19.4696 20.5306 18.7502 20.8286 18 20.8286Z" fill="#FFF"/>
</svg>
